<svg width="24" height="24" viewBox="0 0 24 24" fill="none" xmlns="http://www.w3.org/2000/svg">
<g clip-path="url(#clip0_236_2966)">
<path d="M8.00002 8.2465C8.00254 7.65337 7.80725 7.07633 7.44502 6.60665C7.0828 6.13696 6.57432 5.80145 6.00002 5.65317V3.33317C6.00002 3.15636 5.92978 2.98679 5.80476 2.86177C5.67973 2.73674 5.51016 2.6665 5.33335 2.6665C5.15654 2.6665 4.98697 2.73674 4.86195 2.86177C4.73692 2.98679 4.66669 3.15636 4.66669 3.33317V5.65317C4.08393 5.79273 3.56516 6.12451 3.19404 6.595C2.82293 7.06549 2.62109 7.64726 2.62109 8.2465C2.62109 8.84574 2.82293 9.42752 3.19404 9.89801C3.56516 10.3685 4.08393 10.7003 4.66669 10.8398V20.6665C4.66669 20.8433 4.73692 21.0129 4.86195 21.1379C4.98697 21.2629 5.15654 21.3332 5.33335 21.3332C5.51016 21.3332 5.67973 21.2629 5.80476 21.1379C5.92978 21.0129 6.00002 20.8433 6.00002 20.6665V10.8398C6.57432 10.6916 7.0828 10.356 7.44502 9.88636C7.80725 9.41668 8.00254 8.83963 8.00002 8.2465ZM5.33335 9.57984C5.06964 9.57984 4.81186 9.50164 4.59259 9.35513C4.37333 9.20862 4.20243 9.00038 4.10151 8.75675C4.0006 8.51311 3.97419 8.24503 4.02564 7.98638C4.07709 7.72774 4.20407 7.49017 4.39054 7.3037C4.57701 7.11723 4.81459 6.99024 5.07323 6.93879C5.33187 6.88734 5.59996 6.91375 5.8436 7.01466C6.08723 7.11558 6.29547 7.28648 6.44198 7.50574C6.58849 7.72501 6.66669 7.9828 6.66669 8.2465C6.66934 8.42328 6.63681 8.59881 6.57099 8.76289C6.50517 8.92698 6.40738 9.07633 6.2833 9.20227C6.15923 9.32821 6.01134 9.42821 5.84826 9.49646C5.68517 9.56472 5.51014 9.59986 5.33335 9.59984V9.57984Z" fill="#999999"/>
<path d="M21.3334 10.5532C21.3359 9.96004 21.1406 9.383 20.7784 8.91331C20.4162 8.44363 19.9077 8.10812 19.3334 7.95984V3.33317C19.3334 3.15636 19.2632 2.98679 19.1381 2.86177C19.0131 2.73674 18.8435 2.6665 18.6667 2.6665C18.4899 2.6665 18.3203 2.73674 18.1953 2.86177C18.0703 2.98679 18.0001 3.15636 18.0001 3.33317V7.95984C17.4173 8.0994 16.8985 8.43118 16.5274 8.90167C16.1563 9.37216 15.9545 9.95393 15.9545 10.5532C15.9545 11.1524 16.1563 11.7342 16.5274 12.2047C16.8985 12.6752 17.4173 13.0069 18.0001 13.1465V20.6665C18.0001 20.8433 18.0703 21.0129 18.1953 21.1379C18.3203 21.2629 18.4899 21.3332 18.6667 21.3332C18.8435 21.3332 19.0131 21.2629 19.1381 21.1379C19.2632 21.0129 19.3334 20.8433 19.3334 20.6665V13.1465C19.9077 12.9982 20.4162 12.6627 20.7784 12.193C21.1406 11.7233 21.3359 11.1463 21.3334 10.5532ZM18.6667 11.8865C18.403 11.8865 18.1452 11.8083 17.926 11.6618C17.7067 11.5153 17.5358 11.3071 17.4349 11.0634C17.334 10.8198 17.3076 10.5517 17.359 10.2931C17.4105 10.0344 17.5374 9.79683 17.7239 9.61036C17.9104 9.42389 18.148 9.2969 18.4066 9.24546C18.6652 9.19401 18.9333 9.22041 19.177 9.32133C19.4206 9.42225 19.6288 9.59314 19.7754 9.81241C19.9219 10.0317 20.0001 10.2895 20.0001 10.5532C20.0036 10.7305 19.9717 10.9068 19.9063 11.0716C19.8409 11.2365 19.7433 11.3866 19.6191 11.5133C19.4949 11.6399 19.3467 11.7405 19.1832 11.8092C19.0197 11.8779 18.8441 11.9132 18.6667 11.9132V11.8865Z" fill="#999999"/>
<path d="M14.6666 16.3332C14.6692 15.74 14.4739 15.163 14.1116 14.6933C13.7494 14.2236 13.2409 13.8881 12.6666 13.7398V3.33317C12.6666 3.15636 12.5964 2.98679 12.4714 2.86177C12.3464 2.73674 12.1768 2.6665 12 2.6665C11.8232 2.6665 11.6536 2.73674 11.5286 2.86177C11.4035 2.98679 11.3333 3.15636 11.3333 3.33317V13.7398C10.7506 13.8794 10.2318 14.2112 9.86067 14.6817C9.48955 15.1522 9.28772 15.7339 9.28772 16.3332C9.28772 16.9324 9.48955 17.5142 9.86067 17.9847C10.2318 18.4552 10.7506 18.7869 11.3333 18.9265V20.6665C11.3333 20.8433 11.4035 21.0129 11.5286 21.1379C11.6536 21.2629 11.8232 21.3332 12 21.3332C12.1768 21.3332 12.3464 21.2629 12.4714 21.1379C12.5964 21.0129 12.6666 20.8433 12.6666 20.6665V18.9265C13.2409 18.7782 13.7494 18.4427 14.1116 17.973C14.4739 17.5033 14.6692 16.9263 14.6666 16.3332ZM12 17.6665C11.7363 17.6665 11.4785 17.5883 11.2592 17.4418C11.04 17.2953 10.8691 17.0871 10.7681 16.8434C10.6672 16.5998 10.6408 16.3317 10.6923 16.0731C10.7437 15.8144 10.8707 15.5768 11.0572 15.3904C11.2436 15.2039 11.4812 15.0769 11.7399 15.0255C11.9985 14.974 12.2666 15.0004 12.5102 15.1013C12.7539 15.2022 12.9621 15.3731 13.1086 15.5924C13.2551 15.8117 13.3333 16.0695 13.3333 16.3332C13.336 16.5099 13.3034 16.6855 13.2376 16.8496C13.1718 17.0136 13.074 17.163 12.9499 17.2889C12.8259 17.4149 12.678 17.5149 12.5149 17.5831C12.3518 17.6514 12.1768 17.6865 12 17.6865V17.6665Z" fill="#999999"/>
</g>
<defs>
<clipPath id="clip0_236_2966">
<rect width="24" height="24" fill="white"/>
</clipPath>
</defs>
</svg>
